# Blender 4.2.3 LTS
# www.blender.org
o Barrel
v -0.000000 -0.016830 0.317794
v -0.000000 1.042483 0.317794
v -0.061999 -0.016830 0.311688
v -0.061999 1.042483 0.311688
v -0.121614 -0.016830 0.293603
v -0.121614 1.042483 0.293603
v -0.176557 -0.016830 0.264236
v -0.176557 1.042483 0.264236
v -0.224714 -0.016830 0.224714
v -0.224714 1.042483 0.224714
v -0.264236 -0.016830 0.176557
v -0.264236 1.042483 0.176557
v -0.293603 -0.016830 0.121614
v -0.293603 1.042483 0.121614
v -0.311688 -0.016830 0.061999
v -0.311688 1.042483 0.061999
v -0.317794 -0.016830 0.000000
v -0.317794 1.042483 0.000000
v -0.311688 -0.016830 -0.061999
v -0.311688 1.042483 -0.061999
v -0.293603 -0.016830 -0.121614
v -0.293603 1.042483 -0.121614
v -0.264236 -0.016830 -0.176557
v -0.264236 1.042483 -0.176557
v -0.224714 -0.016830 -0.224714
v -0.224714 1.042483 -0.224714
v -0.176557 -0.016830 -0.264236
v -0.176557 1.042483 -0.264236
v -0.121614 -0.016830 -0.293603
v -0.121614 1.042483 -0.293603
v -0.061999 -0.016830 -0.311688
v -0.061999 1.042483 -0.311688
v -0.000000 -0.016830 -0.317794
v -0.000000 1.042483 -0.317794
v 0.061999 -0.016830 -0.311688
v 0.061999 1.042483 -0.311688
v 0.121614 -0.016830 -0.293603
v 0.121614 1.042483 -0.293603
v 0.176557 -0.016830 -0.264236
v 0.176557 1.042483 -0.264236
v 0.224714 -0.016830 -0.224714
v 0.224714 1.042483 -0.224714
v 0.264236 -0.016830 -0.176557
v 0.264236 1.042483 -0.176557
v 0.293603 -0.016830 -0.121614
v 0.293603 1.042483 -0.121614
v 0.311688 -0.016830 -0.061999
v 0.311688 1.042483 -0.061999
v 0.317794 -0.016830 0.000000
v 0.317794 1.042483 0.000000
v 0.311688 -0.016830 0.061999
v 0.311688 1.042483 0.061999
v 0.293603 -0.016830 0.121614
v 0.293603 1.042483 0.121614
v 0.264236 -0.016830 0.176557
v 0.264236 1.042483 0.176557
v 0.224714 -0.016830 0.224714
v 0.224714 1.042483 0.224714
v 0.176557 -0.016830 0.264236
v 0.176557 1.042483 0.264236
v 0.121614 -0.016830 0.293603
v 0.121614 1.042483 0.293603
v 0.061999 -0.016830 0.311688
v 0.061999 1.042483 0.311688
v 0.000000 0.080895 0.300000
v 0.000000 0.951311 0.300000
v -0.058527 0.951311 0.294236
v -0.058527 0.080895 0.294236
v -0.114805 0.951311 0.277164
v -0.114805 0.080895 0.277164
v -0.166671 0.951311 0.249441
v -0.166671 0.080895 0.249441
v -0.212132 0.951311 0.212132
v -0.212132 0.080895 0.212132
v -0.249441 0.951311 0.166671
v -0.249441 0.080895 0.166671
v -0.277164 0.951311 0.114805
v -0.277164 0.080895 0.114805
v -0.294236 0.951311 0.058527
v -0.294236 0.080895 0.058527
v -0.300000 0.951311 0.000000
v -0.300000 0.080895 0.000000
v -0.294236 0.951311 -0.058527
v -0.294236 0.080895 -0.058527
v -0.277164 0.951311 -0.114805
v -0.277164 0.080895 -0.114805
v -0.249441 0.951311 -0.166671
v -0.249441 0.080895 -0.166671
v -0.212132 0.951311 -0.212132
v -0.212132 0.080895 -0.212132
v -0.166671 0.951311 -0.249441
v -0.166671 0.080895 -0.249441
v -0.114805 0.951311 -0.277164
v -0.114805 0.080895 -0.277164
v -0.058527 0.951311 -0.294236
v -0.058527 0.080895 -0.294236
v 0.000000 0.951311 -0.300000
v 0.000000 0.080895 -0.300000
v 0.058527 0.951311 -0.294236
v 0.058527 0.080895 -0.294236
v 0.114805 0.951311 -0.277164
v 0.114805 0.080895 -0.277164
v 0.166671 0.951311 -0.249441
v 0.166671 0.080895 -0.249441
v 0.212132 0.951311 -0.212132
v 0.212132 0.080895 -0.212132
v 0.249441 0.951311 -0.166671
v 0.249441 0.080895 -0.166671
v 0.277164 0.951311 -0.114805
v 0.277164 0.080895 -0.114805
v 0.294236 0.951311 -0.058527
v 0.294236 0.080895 -0.058527
v 0.300000 0.951311 0.000000
v 0.300000 0.080895 0.000000
v 0.294236 0.951311 0.058527
v 0.294236 0.080895 0.058527
v 0.277164 0.951311 0.114805
v 0.277164 0.080895 0.114805
v 0.249441 0.951311 0.166671
v 0.249441 0.080895 0.166671
v 0.212132 0.951311 0.212132
v 0.212132 0.080895 0.212132
v 0.166671 0.951311 0.249441
v 0.166671 0.080895 0.249441
v 0.114805 0.951311 0.277164
v 0.114805 0.080895 0.277164
v 0.058527 0.951311 0.294236
v 0.058527 0.080895 0.294236
vn -0.0000 -0.0968 0.9953
vn -0.0000 -0.1916 0.9815
vn -0.1915 -0.1916 0.9626
vn -0.1942 -0.0968 0.9762
vn -0.3756 -0.1916 0.9068
vn -0.3809 -0.0968 0.9195
vn -0.5453 -0.1916 0.8161
vn -0.5530 -0.0968 0.8276
vn -0.6940 -0.1916 0.6940
vn -0.7038 -0.0968 0.7038
vn -0.8161 -0.1916 0.5453
vn -0.8276 -0.0968 0.5530
vn -0.9068 -0.1916 0.3756
vn -0.9195 -0.0968 0.3809
vn -0.9626 -0.1916 0.1915
vn -0.9762 -0.0968 0.1942
vn -0.9815 -0.1916 -0.0000
vn -0.9953 -0.0968 -0.0000
vn -0.9626 -0.1916 -0.1915
vn -0.9762 -0.0968 -0.1942
vn -0.9068 -0.1916 -0.3756
vn -0.9195 -0.0968 -0.3809
vn -0.8161 -0.1916 -0.5453
vn -0.8276 -0.0968 -0.5530
vn -0.6940 -0.1916 -0.6940
vn -0.7038 -0.0968 -0.7038
vn -0.5453 -0.1916 -0.8161
vn -0.5530 -0.0968 -0.8276
vn -0.3756 -0.1916 -0.9068
vn -0.3809 -0.0968 -0.9195
vn -0.1915 -0.1916 -0.9626
vn -0.1942 -0.0968 -0.9762
vn -0.0000 -0.1916 -0.9815
vn -0.0000 -0.0968 -0.9953
vn 0.1915 -0.1916 -0.9626
vn 0.1942 -0.0968 -0.9762
vn 0.3756 -0.1916 -0.9068
vn 0.3809 -0.0968 -0.9195
vn 0.5453 -0.1916 -0.8161
vn 0.5530 -0.0968 -0.8276
vn 0.6940 -0.1916 -0.6940
vn 0.7038 -0.0968 -0.7038
vn 0.8161 -0.1916 -0.5453
vn 0.8276 -0.0968 -0.5530
vn 0.9068 -0.1916 -0.3756
vn 0.9195 -0.0968 -0.3809
vn 0.9626 -0.1916 -0.1915
vn 0.9762 -0.0968 -0.1942
vn 0.9815 -0.1916 -0.0000
vn 0.9953 -0.0968 -0.0000
vn 0.9626 -0.1916 0.1915
vn 0.9762 -0.0968 0.1942
vn 0.9068 -0.1916 0.3756
vn 0.9195 -0.0968 0.3809
vn 0.8161 -0.1916 0.5453
vn 0.8276 -0.0968 0.5530
vn 0.6940 -0.1916 0.6940
vn 0.7038 -0.0968 0.7038
vn 0.5453 -0.1916 0.8161
vn 0.5530 -0.0968 0.8276
vn 0.3756 -0.1916 0.9068
vn 0.3809 -0.0968 0.9195
vn -0.0000 1.0000 -0.0000
vn 0.1915 -0.1916 0.9626
vn 0.1942 -0.0968 0.9762
vn -0.0000 -1.0000 -0.0000
vn 0.1919 0.1791 0.9649
vn 0.1943 0.0904 0.9768
vn -0.0000 0.0904 0.9959
vn -0.0000 0.1791 0.9838
vn 0.3765 0.1791 0.9089
vn 0.3811 0.0904 0.9201
vn 0.5466 0.1791 0.8180
vn 0.5533 0.0904 0.8281
vn 0.6957 0.1791 0.6957
vn 0.7042 0.0904 0.7042
vn 0.8180 0.1791 0.5466
vn 0.8281 0.0904 0.5533
vn 0.9089 0.1791 0.3765
vn 0.9201 0.0904 0.3811
vn 0.9649 0.1791 0.1919
vn 0.9768 0.0904 0.1943
vn 0.9838 0.1791 -0.0000
vn 0.9959 0.0904 -0.0000
vn 0.9649 0.1791 -0.1919
vn 0.9768 0.0904 -0.1943
vn 0.9089 0.1791 -0.3765
vn 0.9201 0.0904 -0.3811
vn 0.8180 0.1791 -0.5466
vn 0.8281 0.0904 -0.5533
vn 0.6957 0.1791 -0.6957
vn 0.7042 0.0904 -0.7042
vn 0.5466 0.1791 -0.8180
vn 0.5533 0.0904 -0.8281
vn 0.3765 0.1791 -0.9089
vn 0.3811 0.0904 -0.9201
vn 0.1919 0.1791 -0.9649
vn 0.1943 0.0904 -0.9768
vn -0.0000 0.1791 -0.9838
vn -0.0000 0.0904 -0.9959
vn -0.1919 0.1791 -0.9649
vn -0.1943 0.0904 -0.9768
vn -0.3765 0.1791 -0.9089
vn -0.3811 0.0904 -0.9201
vn -0.5466 0.1791 -0.8180
vn -0.5533 0.0904 -0.8281
vn -0.6957 0.1791 -0.6957
vn -0.7042 0.0904 -0.7042
vn -0.8180 0.1791 -0.5466
vn -0.8281 0.0904 -0.5533
vn -0.9089 0.1791 -0.3765
vn -0.9201 0.0904 -0.3811
vn -0.9649 0.1791 -0.1919
vn -0.9768 0.0904 -0.1943
vn -0.9838 0.1791 -0.0000
vn -0.9959 0.0904 -0.0000
vn -0.9649 0.1791 0.1919
vn -0.9768 0.0904 0.1943
vn -0.9089 0.1791 0.3765
vn -0.9201 0.0904 0.3811
vn -0.8180 0.1791 0.5466
vn -0.8281 0.0904 0.5533
vn -0.6957 0.1791 0.6957
vn -0.7042 0.0904 0.7042
vn -0.5466 0.1791 0.8180
vn -0.5533 0.0904 0.8281
vn -0.3765 0.1791 0.9089
vn -0.3811 0.0904 0.9201
vn -0.1919 0.1791 0.9649
vn -0.1943 0.0904 0.9768
vt 1.000000 0.700701
vt 1.000000 1.000000
vt 0.968750 1.000000
vt 0.968750 0.700701
vt 0.937500 1.000000
vt 0.937500 0.700701
vt 0.906250 1.000000
vt 0.906250 0.700701
vt 0.875000 1.000000
vt 0.875000 0.700701
vt 0.843750 1.000000
vt 0.843750 0.700701
vt 0.812500 1.000000
vt 0.812500 0.700701
vt 0.781250 1.000000
vt 0.781250 0.700701
vt 0.750000 1.000000
vt 0.750000 0.700701
vt 0.718750 1.000000
vt 0.718750 0.700701
vt 0.687500 1.000000
vt 0.687500 0.700701
vt 0.656250 1.000000
vt 0.656250 0.700701
vt 0.625000 1.000000
vt 0.625000 0.700701
vt 0.593750 1.000000
vt 0.593750 0.700701
vt 0.562500 1.000000
vt 0.562500 0.700701
vt 0.531250 1.000000
vt 0.531250 0.700701
vt 0.500000 1.000000
vt 0.500000 0.700701
vt 0.468750 1.000000
vt 0.468750 0.700701
vt 0.437500 1.000000
vt 0.437500 0.700701
vt 0.406250 1.000000
vt 0.406250 0.700701
vt 0.375000 1.000000
vt 0.375000 0.700701
vt 0.343750 1.000000
vt 0.343750 0.700701
vt 0.312500 1.000000
vt 0.312500 0.700701
vt 0.281250 1.000000
vt 0.281250 0.700701
vt 0.250000 1.000000
vt 0.250000 0.700701
vt 0.218750 1.000000
vt 0.218750 0.700701
vt 0.187500 1.000000
vt 0.187500 0.700701
vt 0.156250 1.000000
vt 0.156250 0.700701
vt 0.125000 1.000000
vt 0.125000 0.700701
vt 0.093750 1.000000
vt 0.093750 0.700701
vt 0.062500 1.000000
vt 0.062500 0.700701
vt 0.431274 0.329622
vt 0.415436 0.331182
vt 0.399598 0.329622
vt 0.384369 0.325002
vt 0.370334 0.317500
vt 0.358032 0.307404
vt 0.347936 0.295102
vt 0.340434 0.281067
vt 0.335814 0.265838
vt 0.334254 0.250000
vt 0.335814 0.234162
vt 0.340434 0.218933
vt 0.347936 0.204898
vt 0.358032 0.192596
vt 0.370334 0.182500
vt 0.384369 0.174998
vt 0.399598 0.170378
vt 0.415436 0.168818
vt 0.431274 0.170378
vt 0.446503 0.174998
vt 0.460538 0.182500
vt 0.472840 0.192596
vt 0.482936 0.204898
vt 0.490438 0.218933
vt 0.495058 0.234162
vt 0.496617 0.250000
vt 0.495058 0.265838
vt 0.490438 0.281067
vt 0.482936 0.295102
vt 0.472840 0.307404
vt 0.460538 0.317500
vt 0.446503 0.325002
vt 0.031250 1.000000
vt 0.031250 0.700701
vt 0.000000 1.000000
vt 0.000000 0.700701
vt 0.584564 0.331182
vt 0.600402 0.329622
vt 0.615631 0.325002
vt 0.629666 0.317500
vt 0.641968 0.307404
vt 0.652064 0.295102
vt 0.659566 0.281067
vt 0.664186 0.265838
vt 0.665746 0.250000
vt 0.664186 0.234162
vt 0.659566 0.218933
vt 0.652064 0.204898
vt 0.641968 0.192596
vt 0.629666 0.182500
vt 0.615631 0.174998
vt 0.600402 0.170378
vt 0.584564 0.168818
vt 0.568726 0.170378
vt 0.553497 0.174998
vt 0.539462 0.182500
vt 0.527160 0.192596
vt 0.517064 0.204898
vt 0.509562 0.218933
vt 0.504942 0.234162
vt 0.503383 0.250000
vt 0.504942 0.265838
vt 0.509562 0.281067
vt 0.517064 0.295102
vt 0.527160 0.307404
vt 0.539462 0.317500
vt 0.553497 0.325002
vt 0.568726 0.329622
vt 0.031250 0.500000
vt 0.031250 0.534034
vt 0.000000 0.534034
vt 0.000000 0.500000
vt 0.062500 0.500000
vt 0.062500 0.534034
vt 0.093750 0.500000
vt 0.093750 0.534034
vt 0.125000 0.500000
vt 0.125000 0.534034
vt 0.156250 0.500000
vt 0.156250 0.534034
vt 0.187500 0.500000
vt 0.187500 0.534034
vt 0.218750 0.500000
vt 0.218750 0.534034
vt 0.250000 0.500000
vt 0.250000 0.534034
vt 0.281250 0.500000
vt 0.281250 0.534034
vt 0.312500 0.500000
vt 0.312500 0.534034
vt 0.343750 0.500000
vt 0.343750 0.534034
vt 0.375000 0.500000
vt 0.375000 0.534034
vt 0.406250 0.500000
vt 0.406250 0.534034
vt 0.437500 0.500000
vt 0.437500 0.534034
vt 0.468750 0.500000
vt 0.468750 0.534034
vt 0.500000 0.500000
vt 0.500000 0.534034
vt 0.531250 0.500000
vt 0.531250 0.534034
vt 0.562500 0.500000
vt 0.562500 0.534034
vt 0.593750 0.500000
vt 0.593750 0.534034
vt 0.625000 0.500000
vt 0.625000 0.534034
vt 0.656250 0.500000
vt 0.656250 0.534034
vt 0.687500 0.500000
vt 0.687500 0.534034
vt 0.718750 0.500000
vt 0.718750 0.534034
vt 0.750000 0.500000
vt 0.750000 0.534034
vt 0.781250 0.500000
vt 0.781250 0.534034
vt 0.812500 0.500000
vt 0.812500 0.534034
vt 0.843750 0.500000
vt 0.843750 0.534034
vt 0.875000 0.500000
vt 0.875000 0.534034
vt 0.906250 0.500000
vt 0.906250 0.534034
vt 0.937500 0.500000
vt 0.937500 0.534034
vt 0.968750 0.500000
vt 0.968750 0.534034
vt 1.000000 0.500000
vt 1.000000 0.534034
s 1
f 66/1/1 2/2/2 4/3/3 67/4/4
f 67/4/4 4/3/3 6/5/5 69/6/6
f 69/6/6 6/5/5 8/7/7 71/8/8
f 71/8/8 8/7/7 10/9/9 73/10/10
f 73/10/10 10/9/9 12/11/11 75/12/12
f 75/12/12 12/11/11 14/13/13 77/14/14
f 77/14/14 14/13/13 16/15/15 79/16/16
f 79/16/16 16/15/15 18/17/17 81/18/18
f 81/18/18 18/17/17 20/19/19 83/20/20
f 83/20/20 20/19/19 22/21/21 85/22/22
f 85/22/22 22/21/21 24/23/23 87/24/24
f 87/24/24 24/23/23 26/25/25 89/26/26
f 89/26/26 26/25/25 28/27/27 91/28/28
f 91/28/28 28/27/27 30/29/29 93/30/30
f 93/30/30 30/29/29 32/31/31 95/32/32
f 95/32/32 32/31/31 34/33/33 97/34/34
f 97/34/34 34/33/33 36/35/35 99/36/36
f 99/36/36 36/35/35 38/37/37 101/38/38
f 101/38/38 38/37/37 40/39/39 103/40/40
f 103/40/40 40/39/39 42/41/41 105/42/42
f 105/42/42 42/41/41 44/43/43 107/44/44
f 107/44/44 44/43/43 46/45/45 109/46/46
f 109/46/46 46/45/45 48/47/47 111/48/48
f 111/48/48 48/47/47 50/49/49 113/50/50
f 113/50/50 50/49/49 52/51/51 115/52/52
f 115/52/52 52/51/51 54/53/53 117/54/54
f 117/54/54 54/53/53 56/55/55 119/56/56
f 119/56/56 56/55/55 58/57/57 121/58/58
f 121/58/58 58/57/57 60/59/59 123/60/60
f 123/60/60 60/59/59 62/61/61 125/62/62
f 4/63/63 2/64/63 64/65/63 62/66/63 60/67/63 58/68/63 56/69/63 54/70/63 52/71/63 50/72/63 48/73/63 46/74/63 44/75/63 42/76/63 40/77/63 38/78/63 36/79/63 34/80/63 32/81/63 30/82/63 28/83/63 26/84/63 24/85/63 22/86/63 20/87/63 18/88/63 16/89/63 14/90/63 12/91/63 10/92/63 8/93/63 6/94/63
f 125/62/62 62/61/61 64/95/64 127/96/65
f 127/96/65 64/95/64 2/97/2 66/98/1
f 1/99/66 3/100/66 5/101/66 7/102/66 9/103/66 11/104/66 13/105/66 15/106/66 17/107/66 19/108/66 21/109/66 23/110/66 25/111/66 27/112/66 29/113/66 31/114/66 33/115/66 35/116/66 37/117/66 39/118/66 41/119/66 43/120/66 45/121/66 47/122/66 49/123/66 51/124/66 53/125/66 55/126/66 57/127/66 59/128/66 61/129/66 63/130/66
f 63/131/67 128/132/68 65/133/69 1/134/70
f 128/132/68 127/96/65 66/98/1 65/133/69
f 61/135/71 126/136/72 128/132/68 63/131/67
f 126/136/72 125/62/62 127/96/65 128/132/68
f 59/137/73 124/138/74 126/136/72 61/135/71
f 124/138/74 123/60/60 125/62/62 126/136/72
f 57/139/75 122/140/76 124/138/74 59/137/73
f 122/140/76 121/58/58 123/60/60 124/138/74
f 55/141/77 120/142/78 122/140/76 57/139/75
f 120/142/78 119/56/56 121/58/58 122/140/76
f 53/143/79 118/144/80 120/142/78 55/141/77
f 118/144/80 117/54/54 119/56/56 120/142/78
f 51/145/81 116/146/82 118/144/80 53/143/79
f 116/146/82 115/52/52 117/54/54 118/144/80
f 49/147/83 114/148/84 116/146/82 51/145/81
f 114/148/84 113/50/50 115/52/52 116/146/82
f 47/149/85 112/150/86 114/148/84 49/147/83
f 112/150/86 111/48/48 113/50/50 114/148/84
f 45/151/87 110/152/88 112/150/86 47/149/85
f 110/152/88 109/46/46 111/48/48 112/150/86
f 43/153/89 108/154/90 110/152/88 45/151/87
f 108/154/90 107/44/44 109/46/46 110/152/88
f 41/155/91 106/156/92 108/154/90 43/153/89
f 106/156/92 105/42/42 107/44/44 108/154/90
f 39/157/93 104/158/94 106/156/92 41/155/91
f 104/158/94 103/40/40 105/42/42 106/156/92
f 37/159/95 102/160/96 104/158/94 39/157/93
f 102/160/96 101/38/38 103/40/40 104/158/94
f 35/161/97 100/162/98 102/160/96 37/159/95
f 100/162/98 99/36/36 101/38/38 102/160/96
f 33/163/99 98/164/100 100/162/98 35/161/97
f 98/164/100 97/34/34 99/36/36 100/162/98
f 31/165/101 96/166/102 98/164/100 33/163/99
f 96/166/102 95/32/32 97/34/34 98/164/100
f 29/167/103 94/168/104 96/166/102 31/165/101
f 94/168/104 93/30/30 95/32/32 96/166/102
f 27/169/105 92/170/106 94/168/104 29/167/103
f 92/170/106 91/28/28 93/30/30 94/168/104
f 25/171/107 90/172/108 92/170/106 27/169/105
f 90/172/108 89/26/26 91/28/28 92/170/106
f 23/173/109 88/174/110 90/172/108 25/171/107
f 88/174/110 87/24/24 89/26/26 90/172/108
f 21/175/111 86/176/112 88/174/110 23/173/109
f 86/176/112 85/22/22 87/24/24 88/174/110
f 19/177/113 84/178/114 86/176/112 21/175/111
f 84/178/114 83/20/20 85/22/22 86/176/112
f 17/179/115 82/180/116 84/178/114 19/177/113
f 82/180/116 81/18/18 83/20/20 84/178/114
f 15/181/117 80/182/118 82/180/116 17/179/115
f 80/182/118 79/16/16 81/18/18 82/180/116
f 13/183/119 78/184/120 80/182/118 15/181/117
f 78/184/120 77/14/14 79/16/16 80/182/118
f 11/185/121 76/186/122 78/184/120 13/183/119
f 76/186/122 75/12/12 77/14/14 78/184/120
f 9/187/123 74/188/124 76/186/122 11/185/121
f 74/188/124 73/10/10 75/12/12 76/186/122
f 7/189/125 72/190/126 74/188/124 9/187/123
f 72/190/126 71/8/8 73/10/10 74/188/124
f 5/191/127 70/192/128 72/190/126 7/189/125
f 70/192/128 69/6/6 71/8/8 72/190/126
f 3/193/129 68/194/130 70/192/128 5/191/127
f 68/194/130 67/4/4 69/6/6 70/192/128
f 1/195/70 65/196/69 68/194/130 3/193/129
f 65/196/69 66/1/1 67/4/4 68/194/130
