# Blender v3.6.8 OBJ File: ''
# www.blender.org
mtllib FuelCan.mtl
o Fuel
v 0.079465 0.537251 0.242617
v -0.079465 0.537251 0.242617
v -0.079465 0.196712 0.157660
v 0.079465 0.196712 0.157660
v 0.079465 0.682179 -0.023763
v -0.079465 0.682179 -0.023763
v -0.079465 0.634728 0.166438
v 0.079465 0.634728 0.166438
v 0.079465 0.299129 -0.252864
v -0.079465 0.299129 -0.252864
v -0.079465 0.713542 -0.149477
v 0.079465 0.713542 -0.149477
v 0.079465 0.148724 0.074100
v -0.079465 0.148724 0.074100
v -0.079465 0.217192 -0.200342
v 0.079465 0.217192 -0.200342
v 0.079465 0.196712 0.157660
v -0.079465 0.196712 0.157660
v -0.079465 0.148724 0.074100
v 0.079465 0.148724 0.074100
v -0.079465 0.537251 0.242617
v 0.079465 0.537251 0.242617
v 0.079465 0.634728 0.166438
v -0.079465 0.634728 0.166438
v 0.079465 0.768972 -0.084711
v -0.079465 0.768972 -0.084711
v -0.079465 0.759272 -0.045831
v 0.079465 0.759272 -0.045831
v -0.079465 0.299129 -0.252864
v 0.079465 0.299129 -0.252864
v 0.079465 0.217192 -0.200342
v -0.079465 0.217192 -0.200342
v 0.079465 0.759272 -0.045831
v -0.079465 0.759272 -0.045831
v -0.079465 0.682179 -0.023763
v 0.079465 0.682179 -0.023763
v -0.079465 0.768972 -0.084711
v 0.079465 0.768972 -0.084711
v 0.079465 0.713542 -0.149477
v -0.079465 0.713542 -0.149477
v 0.027249 0.757213 -0.054196
v -0.027249 0.757213 -0.054196
v -0.027249 0.712492 0.125065
v 0.027249 0.712492 0.125065
v 0.027249 0.687642 0.099214
v -0.027249 0.687642 0.099214
v -0.027249 0.727748 -0.061547
v 0.027249 0.727748 -0.061547
v 0.027249 0.635695 0.117465
v -0.027249 0.635695 0.117465
v -0.027249 0.687642 0.099214
v 0.027249 0.687642 0.099214
v -0.027249 0.626457 0.154848
v 0.027249 0.626457 0.154848
v 0.027249 0.712492 0.125065
v -0.027249 0.712492 0.125065
v 0.079465 0.537251 0.242617
v 0.079465 0.196712 0.157660
v 0.079465 0.148724 0.074100
v 0.079465 0.634728 0.166438
v 0.079465 0.682179 -0.023763
v 0.079465 0.217192 -0.200342
v 0.079465 0.299129 -0.252864
v 0.079465 0.713542 -0.149477
v 0.079465 0.768972 -0.084711
v 0.079465 0.759272 -0.045831
v -0.079465 0.196712 0.157660
v -0.079465 0.537251 0.242617
v -0.079465 0.634728 0.166438
v -0.079465 0.148724 0.074100
v -0.079465 0.217192 -0.200342
v -0.079465 0.682179 -0.023763
v -0.079465 0.713542 -0.149477
v -0.079465 0.299129 -0.252864
v -0.079465 0.759272 -0.045831
v -0.079465 0.768972 -0.084711
v 0.027249 0.687642 0.099214
v 0.027249 0.727748 -0.061547
v 0.027249 0.757213 -0.054196
v 0.027249 0.712492 0.125065
v 0.027249 0.626457 0.154848
v 0.027249 0.635695 0.117465
v -0.027249 0.712492 0.125065
v -0.027249 0.757213 -0.054196
v -0.027249 0.727748 -0.061547
v -0.027249 0.687642 0.099214
v -0.027249 0.635695 0.117465
v -0.027249 0.626457 0.154848
v 0.000000 0.613489 0.245223
v 0.023701 0.645930 0.220069
v -0.023701 0.645930 0.220069
v -0.047401 0.613489 0.245223
v 0.047401 0.613489 0.245223
v -0.023701 0.581048 0.270378
v 0.023701 0.581048 0.270378
v 0.023701 0.626713 0.195285
v 0.047401 0.594272 0.220439
v 0.038025 0.594272 0.220439
v 0.019012 0.620295 0.200261
v 0.019012 0.568248 0.240618
v -0.023701 0.626713 0.195285
v 0.023701 0.561831 0.245594
v -0.019012 0.620295 0.200261
v -0.019012 0.568248 0.240618
v -0.047401 0.594272 0.220439
v -0.023701 0.561831 0.245594
v -0.038025 0.594272 0.220439
v -0.019012 0.620295 0.200261
v 0.019012 0.620295 0.200261
v 0.019012 0.592912 0.164946
v -0.019012 0.592912 0.164946
v 0.038025 0.566889 0.185124
v -0.038025 0.594272 0.220439
v 0.038025 0.594272 0.220439
v -0.038025 0.566889 0.185124
v 0.019012 0.540865 0.205302
v -0.019012 0.568248 0.240618
v 0.019012 0.568248 0.240618
v -0.019012 0.540865 0.205302
v 0.023701 0.645930 0.220069
v 0.047401 0.613489 0.245223
v 0.047401 0.594272 0.220439
v 0.023701 0.626713 0.195285
v 0.023701 0.561831 0.245594
v -0.023701 0.645930 0.220069
v 0.023701 0.581048 0.270378
v -0.023701 0.626713 0.195285
v -0.023701 0.561831 0.245594
v -0.047401 0.613489 0.245223
v -0.023701 0.581048 0.270378
v -0.047401 0.594272 0.220439
vt 0.179077 0.573975
vt 0.112122 0.608643
vt 0.112122 0.126465
vt 0.179077 0.174805
vt 0.623047 0.660400
vt 0.574219 0.713379
vt 0.290527 0.713379
vt 0.326660 0.660400
vt 0.819336 0.174805
vt 0.886230 0.126465
vt 0.886230 0.713379
vt 0.819336 0.660400
vt 0.284180 0.099121
vt 0.239258 0.034668
vt 0.756836 0.034668
vt 0.712402 0.099121
vt 0.179077 0.174805
vt 0.112122 0.126465
vt 0.239258 0.034668
vt 0.284180 0.099121
vt 0.112122 0.608643
vt 0.179077 0.573975
vt 0.326660 0.660400
vt 0.290527 0.713379
vt 0.744629 0.739502
vt 0.795898 0.808716
vt 0.647461 0.808716
vt 0.684082 0.739502
vt 0.886230 0.126465
vt 0.819336 0.174805
vt 0.712402 0.099121
vt 0.756836 0.034668
vt 0.684082 0.739502
vt 0.647461 0.808716
vt 0.574219 0.713379
vt 0.623047 0.660400
vt 0.795898 0.808716
vt 0.744629 0.739502
vt 0.819336 0.660400
vt 0.886230 0.713379
vt 0.556641 0.844238
vt 0.556641 0.899963
vt 0.279297 0.899963
vt 0.279297 0.844238
vt 0.279297 0.788330
vt 0.279297 0.732910
vt 0.556641 0.732910
vt 0.556641 0.788330
vt 0.167969 0.788330
vt 0.167969 0.732910
vt 0.279297 0.732910
vt 0.279297 0.788330
vt 0.167969 0.899963
vt 0.167969 0.844238
vt 0.279297 0.844238
vt 0.279297 0.899963
vt 0.179077 0.573975
vt 0.179077 0.174805
vt 0.284180 0.099121
vt 0.326660 0.660400
vt 0.623047 0.660400
vt 0.712402 0.099121
vt 0.819336 0.174805
vt 0.819336 0.660400
vt 0.744629 0.739502
vt 0.684082 0.739502
vt 0.179077 0.174805
vt 0.179077 0.573975
vt 0.326660 0.660400
vt 0.284180 0.099121
vt 0.712402 0.099121
vt 0.623047 0.660400
vt 0.819336 0.660400
vt 0.819336 0.174805
vt 0.684082 0.739502
vt 0.744629 0.739502
vt 0.279297 0.788330
vt 0.556641 0.788330
vt 0.556641 0.844238
vt 0.279297 0.844238
vt 0.167969 0.844238
vt 0.167969 0.788330
vt 0.279297 0.899963
vt 0.556641 0.899963
vt 0.556641 0.955383
vt 0.279297 0.955383
vt 0.167969 0.955383
vt 0.167969 0.899963
vt 0.725098 0.899902
vt 0.747070 0.934326
vt 0.702637 0.934326
vt 0.680664 0.899902
vt 0.769043 0.899902
vt 0.702637 0.865479
vt 0.747070 0.865479
vt 0.753906 0.945190
vt 0.782715 0.899902
vt 0.800781 0.899902
vt 0.762695 0.958984
vt 0.762695 0.840820
vt 0.695801 0.945190
vt 0.753906 0.854614
vt 0.687012 0.958984
vt 0.687012 0.840820
vt 0.666992 0.899902
vt 0.695801 0.854614
vt 0.649414 0.899902
vt 0.687012 0.958984
vt 0.762695 0.958984
vt 0.773438 0.975586
vt 0.676270 0.975586
vt 0.821777 0.899902
vt 0.649414 0.899902
vt 0.800781 0.899902
vt 0.627930 0.899902
vt 0.773438 0.824219
vt 0.687012 0.840820
vt 0.762695 0.840820
vt 0.676270 0.824219
vt 0.747070 0.934326
vt 0.769043 0.899902
vt 0.782715 0.899902
vt 0.753906 0.945190
vt 0.753906 0.854614
vt 0.702637 0.934326
vt 0.747070 0.865479
vt 0.695801 0.945190
vt 0.695801 0.854614
vt 0.680664 0.899902
vt 0.702637 0.865479
vt 0.666992 0.899902
vn -0.0079 -0.2518 0.9678
vn -0.0079 0.9715 0.2369
vn -0.0078 0.2334 -0.9724
vn -0.0077 -0.9687 -0.2480
vn -0.0078 -0.8749 0.4843
vn -0.0079 0.6188 0.7855
vn -0.0079 0.6189 0.7855
vn -0.0078 -0.5439 -0.8391
vn -0.0079 0.2685 0.9633
vn -0.0078 0.7526 -0.6585
vn -0.0078 -0.3348 -0.9422
vn -0.0077 -0.3348 -0.9422
vn -0.0079 0.3257 0.9454
vn -0.0080 0.3257 0.9454
vn 0.9999 -0.0079 -0.0079
vn -0.9999 -0.0078 -0.0078
vn -0.0079 0.6101 0.7923
vn -0.0077 -0.6123 -0.7906
vn -0.0078 -0.6123 -0.7906
vn -0.3367 0.7360 -0.5873
vn 0.6493 0.5939 -0.4751
vn 0.3227 0.7399 -0.5903
vn -0.6583 0.5878 -0.4702
vn 0.9817 0.1425 -0.1267
vn -0.9822 0.1403 -0.1247
vn 0.9812 -0.1582 0.1108
vn -0.9817 -0.1558 0.1091
vn 0.6479 -0.6084 0.4583
vn -0.6570 -0.6022 0.4536
vn 0.3219 -0.7536 0.5731
vn -0.3358 -0.7498 0.5701
vn 0.3227 0.7398 -0.5903
vn 0.3218 -0.7536 0.5731
vn -0.6569 -0.6022 0.4536
usemtl M_Pickup_Ammo_Fuel
s 1
f 1/1/1 2/2/1 3/3/1
f 3/3/1 4/4/1 1/1/1
f 5/5/2 6/6/2 7/7/2
f 7/7/2 8/8/2 5/5/2
f 9/9/3 10/10/3 11/11/3
f 11/11/3 12/12/3 9/9/3
f 13/13/4 14/14/4 15/15/4
f 15/15/4 16/16/4 13/13/4
f 17/17/5 18/18/5 19/19/5
f 19/19/5 20/20/5 17/17/5
f 21/21/6 22/22/6 23/23/7
f 23/23/7 24/24/6 21/21/6
f 25/25/2 26/26/2 27/27/2
f 27/27/2 28/28/2 25/25/2
f 29/29/8 30/30/8 31/31/8
f 31/31/8 32/32/8 29/29/8
f 33/33/9 34/34/9 35/35/9
f 35/35/9 36/36/9 33/33/9
f 37/37/10 38/38/10 39/39/10
f 39/39/10 40/40/10 37/37/10
f 41/41/2 42/42/2 43/43/2
f 43/43/2 44/44/2 41/41/2
f 45/45/4 46/46/4 47/47/4
f 47/47/4 48/48/4 45/45/4
f 49/49/11 50/50/12 51/51/11
f 51/51/11 52/52/11 49/49/11
f 53/53/13 54/54/14 55/55/13
f 55/55/13 56/56/13 53/53/13
f 57/57/15 58/58/15 59/59/15
f 59/59/15 60/60/15 57/57/15
f 61/61/15 60/60/15 59/59/15
f 59/59/15 62/62/15 61/61/15
f 61/61/15 62/62/15 63/63/15
f 63/63/15 64/64/15 61/61/15
f 61/61/15 64/64/15 65/65/15
f 65/65/15 66/66/15 61/61/15
f 67/67/16 68/68/16 69/69/16
f 69/69/16 70/70/16 67/67/16
f 71/71/16 70/70/16 69/69/16
f 69/69/16 72/72/16 71/71/16
f 71/71/16 72/72/16 73/73/16
f 73/73/16 74/74/16 71/71/16
f 73/73/16 72/72/16 75/75/16
f 75/75/16 76/76/16 73/73/16
f 77/77/15 78/78/15 79/79/15
f 79/79/15 80/80/15 77/77/15
f 77/77/15 80/80/15 81/81/15
f 81/81/15 82/82/15 77/77/15
f 83/83/16 84/84/16 85/85/16
f 85/85/16 86/86/16 83/83/16
f 83/83/16 86/86/16 87/87/16
f 87/87/16 88/88/16 83/83/16
f 89/89/17 90/90/17 91/91/17
f 89/89/17 91/91/17 92/92/17
f 89/89/17 93/93/17 90/90/17
f 89/89/17 92/92/17 94/94/17
f 89/89/17 95/95/17 93/93/17
f 89/89/17 94/94/17 95/95/17
f 96/96/18 97/97/18 98/98/18
f 98/98/18 99/99/19 96/96/18
f 100/100/18 98/98/18 97/97/18
f 101/101/18 96/96/18 99/99/19
f 97/97/18 102/102/18 100/100/18
f 99/99/19 103/103/18 101/101/18
f 104/104/18 100/100/18 102/102/18
f 105/105/18 101/101/18 103/103/18
f 102/102/18 106/106/18 104/104/18
f 103/103/18 107/107/18 105/105/18
f 107/107/18 104/104/18 106/106/18
f 106/106/18 105/105/18 107/107/18
f 108/108/20 109/109/21 110/110/22
f 110/110/22 111/111/23 108/108/20
f 112/112/24 110/110/22 109/109/21
f 113/113/25 108/108/20 111/111/23
f 109/109/21 114/114/26 112/112/24
f 111/111/23 115/115/27 113/113/25
f 116/116/28 112/112/24 114/114/26
f 117/117/29 113/113/25 115/115/27
f 114/114/26 118/118/30 116/116/28
f 115/115/27 119/119/31 117/117/29
f 119/119/31 116/116/28 118/118/30
f 118/118/30 117/117/29 119/119/31
f 120/120/21 121/121/26 122/122/24
f 122/122/24 123/123/32 120/120/21
f 124/124/28 122/122/24 121/121/26
f 125/125/20 120/120/21 123/123/32
f 121/121/26 126/126/33 124/124/28
f 123/123/32 127/127/23 125/125/20
f 128/128/31 124/124/28 126/126/33
f 129/129/25 125/125/20 127/127/23
f 126/126/33 130/130/34 128/128/31
f 127/127/23 131/131/27 129/129/25
f 131/131/27 128/128/31 130/130/34
f 130/130/34 129/129/25 131/131/27
