# Blender 4.2.3 LTS
# www.blender.org
mtllib RocketLauncher.mtl
o RocketLauncher
v -0.588587 0.354661 0.092554
v -0.593414 0.354661 0.092554
v -0.588587 0.336451 0.090761
v -0.593414 0.336451 0.090761
v -0.588587 0.318940 0.085449
v -0.593414 0.318940 0.085449
v -0.588587 0.302803 0.076824
v -0.593414 0.302803 0.076824
v -0.588587 0.288658 0.065215
v -0.593414 0.288658 0.065215
v -0.588587 0.277050 0.051071
v -0.593414 0.277050 0.051071
v -0.588587 0.268425 0.034933
v -0.593414 0.268425 0.034933
v -0.588587 0.263113 0.017423
v -0.593414 0.263113 0.017423
v -0.588587 0.261319 -0.000787
v -0.593414 0.261319 -0.000787
v -0.588587 0.263113 -0.018997
v -0.593414 0.263113 -0.018997
v -0.588587 0.268425 -0.036507
v -0.593414 0.268425 -0.036507
v -0.588587 0.277050 -0.052644
v -0.593414 0.277050 -0.052644
v -0.588587 0.288658 -0.066789
v -0.593414 0.288658 -0.066789
v -0.588587 0.302803 -0.078397
v -0.593414 0.302803 -0.078397
v -0.588587 0.318940 -0.087023
v -0.593414 0.318940 -0.087023
v -0.588587 0.336451 -0.092335
v -0.593414 0.336451 -0.092335
v -0.588587 0.354661 -0.094128
v -0.593414 0.354661 -0.094128
v -0.588587 0.372871 -0.092335
v -0.593414 0.372871 -0.092335
v -0.588587 0.390381 -0.087023
v -0.593414 0.390381 -0.087023
v -0.588587 0.406518 -0.078397
v -0.593414 0.406518 -0.078397
v -0.588587 0.420663 -0.066789
v -0.593414 0.420663 -0.066789
v -0.588587 0.432271 -0.052644
v -0.593414 0.432271 -0.052644
v -0.588587 0.440897 -0.036507
v -0.593414 0.440897 -0.036507
v -0.588587 0.446208 -0.018997
v -0.593414 0.446208 -0.018997
v -0.588587 0.448002 -0.000787
v -0.593414 0.448002 -0.000787
v -0.588587 0.446208 0.017423
v -0.593414 0.446208 0.017423
v -0.588587 0.440897 0.034933
v -0.593414 0.440897 0.034933
v -0.588587 0.432271 0.051071
v -0.593414 0.432271 0.051071
v -0.588587 0.420663 0.065215
v -0.593414 0.420663 0.065215
v -0.588587 0.406518 0.076824
v -0.593414 0.406518 0.076824
v -0.588587 0.390381 0.085449
v -0.593414 0.390381 0.085449
v -0.588587 0.372871 0.090761
v -0.593414 0.372871 0.090761
v 0.301518 0.249660 -0.114966
v 0.301518 0.455213 -0.114966
v 0.301518 0.249660 0.114966
v 0.301518 0.455213 0.114966
v -0.528880 0.249660 -0.114966
v -0.528880 0.455213 -0.114966
v -0.528880 0.249660 0.114966
v -0.528880 0.455213 0.114966
v -0.139830 0.115018 -0.014262
v -0.139830 0.249887 -0.014262
v -0.139830 0.115018 0.019011
v -0.139830 0.249887 0.019011
v -0.192205 0.115018 -0.014262
v -0.192205 0.249887 -0.014262
v -0.192205 0.115018 0.019011
v -0.192205 0.249887 0.019011
v -0.217021 0.177344 -0.014262
v -0.189535 0.176180 -0.014262
v -0.217021 0.177344 0.019011
v -0.189535 0.176180 0.019011
v -0.242280 0.193860 -0.014262
v -0.223422 0.212910 -0.014262
v -0.242280 0.193860 0.019011
v -0.223422 0.212910 0.019011
v -0.223745 0.212585 -0.014262
v -0.191808 0.177782 -0.014262
v -0.223745 0.212585 0.019011
v -0.191808 0.177782 0.019011
v -0.215184 0.237027 -0.014262
v -0.192046 0.237246 -0.014262
v -0.215184 0.237027 0.019011
v -0.192046 0.237246 0.019011
v -0.215007 0.236551 -0.014262
v -0.189236 0.236928 -0.014262
v -0.215007 0.236551 0.019011
v -0.189236 0.236928 0.019011
v -0.222601 0.249866 -0.014262
v -0.189474 0.250085 -0.014262
v -0.222601 0.249866 0.019011
v -0.189474 0.250085 0.019011
v -0.461528 0.053677 -0.014262
v -0.484700 0.249631 -0.014262
v -0.461528 0.053677 0.019011
v -0.484700 0.249631 0.019011
v -0.513903 0.053677 -0.014262
v -0.513903 0.249631 -0.014262
v -0.513903 0.053677 0.019011
v -0.513903 0.249631 0.019011
v -0.460676 0.053677 -0.014262
v -0.461271 0.213423 -0.014262
v -0.460676 0.053677 0.019011
v -0.461271 0.213423 0.019011
v -0.464064 0.053677 -0.014262
v -0.484511 0.249631 -0.014262
v -0.464064 0.053677 0.019011
v -0.484511 0.249631 0.019011
v -0.524753 0.244756 -0.115779
v -0.525020 0.459836 -0.115779
v -0.524753 0.244756 0.120528
v -0.525020 0.459836 0.120528
v -0.591355 0.244756 -0.115779
v -0.591355 0.459836 -0.115779
v -0.591355 0.244756 0.120528
v -0.591355 0.459836 0.120528
v -0.286833 0.316605 0.071963
v -0.287490 0.456692 0.071963
v -0.286833 0.316605 0.123789
v -0.287490 0.456692 0.123789
v -0.387474 0.316605 0.071963
v -0.387474 0.456692 0.071963
v -0.387474 0.316605 0.123789
v -0.387474 0.456692 0.123789
v -0.357681 0.438108 0.119075
v -0.357681 0.446733 0.175891
v -0.329306 0.438108 0.119075
v -0.329306 0.446733 0.175891
v -0.357681 0.405073 0.121153
v -0.357681 0.424583 0.185554
v -0.329306 0.405073 0.121153
v -0.329306 0.424583 0.185554
v -0.326882 0.447125 0.223800
v -0.360696 0.447125 0.223800
v -0.326882 0.441255 0.223247
v -0.360696 0.441255 0.223247
v -0.326882 0.435610 0.221608
v -0.360696 0.435610 0.221608
v -0.326882 0.430407 0.218948
v -0.360696 0.430407 0.218948
v -0.326882 0.425847 0.215368
v -0.360696 0.425847 0.215368
v -0.326882 0.422105 0.211006
v -0.360696 0.422105 0.211006
v -0.326882 0.419324 0.206029
v -0.360696 0.419324 0.206029
v -0.326882 0.417612 0.200628
v -0.360696 0.417612 0.200628
v -0.326882 0.417033 0.195012
v -0.360696 0.417033 0.195012
v -0.326882 0.417612 0.189396
v -0.360696 0.417612 0.189396
v -0.326882 0.419324 0.183996
v -0.360696 0.419324 0.183996
v -0.326882 0.422105 0.179019
v -0.360696 0.422105 0.179019
v -0.326882 0.425847 0.174656
v -0.360696 0.425847 0.174656
v -0.326882 0.430407 0.171076
v -0.360696 0.430407 0.171076
v -0.326882 0.435610 0.168416
v -0.360696 0.435610 0.168416
v -0.326882 0.441255 0.166778
v -0.360696 0.441255 0.166778
v -0.326882 0.447125 0.166225
v -0.360696 0.447125 0.166225
v -0.326882 0.452996 0.166778
v -0.360696 0.452996 0.166778
v -0.326882 0.458641 0.168416
v -0.360696 0.458641 0.168416
v -0.326882 0.463844 0.171076
v -0.360696 0.463844 0.171076
v -0.326882 0.468404 0.174656
v -0.360696 0.468404 0.174656
v -0.326882 0.472146 0.179019
v -0.360696 0.472146 0.179019
v -0.326882 0.474927 0.183996
v -0.360696 0.474927 0.183996
v -0.326882 0.476639 0.189396
v -0.360696 0.476639 0.189396
v -0.326882 0.477218 0.195012
v -0.360696 0.477218 0.195012
v -0.326882 0.476639 0.200628
v -0.360696 0.476639 0.200628
v -0.326882 0.474927 0.206029
v -0.360696 0.474927 0.206029
v -0.326882 0.472146 0.211006
v -0.360696 0.472146 0.211006
v -0.326882 0.468404 0.215368
v -0.360696 0.468404 0.215368
v -0.326882 0.463844 0.218948
v -0.360696 0.463844 0.218948
v -0.326882 0.458641 0.221608
v -0.360696 0.458641 0.221608
v -0.326882 0.452996 0.223247
v -0.360696 0.452996 0.223247
v 0.302066 0.244756 -0.115779
v 0.301799 0.459836 -0.115779
v 0.302066 0.244756 0.120528
v 0.301799 0.459836 0.120528
v 0.241819 0.244756 -0.115779
v 0.241819 0.459836 -0.115779
v 0.241819 0.244756 0.120528
v 0.241819 0.459836 0.120528
vn -0.0000 -0.0000 1.0000
vn -0.0000 -0.1951 0.9808
vn -0.0000 -0.3827 0.9239
vn -0.0000 -0.5556 0.8315
vn -0.0000 -0.7071 0.7071
vn -0.0000 -0.8315 0.5556
vn -0.0000 -0.9239 0.3827
vn -0.0000 -0.9808 0.1951
vn -0.0000 -1.0000 -0.0000
vn -0.0000 -0.9808 -0.1951
vn -0.0000 -0.9239 -0.3827
vn -0.0000 -0.8315 -0.5556
vn -0.0000 -0.7071 -0.7071
vn -0.0000 -0.5556 -0.8315
vn -0.0000 -0.3827 -0.9239
vn -0.0000 -0.1951 -0.9808
vn -0.0000 -0.0000 -1.0000
vn -0.0000 0.1951 -0.9808
vn -0.0000 0.3827 -0.9239
vn -0.0000 0.5556 -0.8315
vn -0.0000 0.7071 -0.7071
vn -0.0000 0.8315 -0.5556
vn -0.0000 0.9239 -0.3827
vn -0.0000 0.9808 -0.1951
vn -0.0000 1.0000 -0.0000
vn -0.0000 0.9808 0.1951
vn -0.0000 0.9239 0.3827
vn -0.0000 0.8315 0.5556
vn -0.0000 0.7071 0.7071
vn -0.0000 0.5556 0.8315
vn -0.0000 0.3827 0.9239
vn -1.0000 -0.0000 -0.0000
vn -0.0000 0.1951 0.9808
vn 1.0000 -0.0000 -0.0000
vn -0.0423 -0.9991 -0.0000
vn -0.7107 0.7035 -0.0000
vn -0.5473 -0.8370 -0.0000
vn 0.7350 0.6781 -0.0000
vn -0.7368 -0.6761 -0.0000
vn -0.0095 1.0000 -0.0000
vn -0.9438 0.3306 -0.0000
vn 1.0000 0.0040 -0.0000
vn 0.0146 -0.9999 -0.0000
vn -0.0066 1.0000 -0.0000
vn -0.8687 -0.4954 -0.0000
vn 0.9998 0.0181 -0.0000
vn 0.9931 0.1174 -0.0000
vn 1.0000 0.0037 -0.0000
vn -0.9946 -0.1038 -0.0000
vn 0.8416 0.5401 -0.0000
vn 1.0000 0.0012 -0.0000
vn 1.0000 0.0047 -0.0000
vn -0.0000 0.9887 -0.1501
vn -0.0000 -0.9570 0.2899
vn -0.0000 -0.0628 -0.9980
vn -0.0000 0.3998 0.9166
vn -0.0000 -0.1871 0.9823
vn -0.0000 -0.3687 0.9296
vn -0.0000 -0.5389 0.8424
vn -0.0000 -0.6916 0.7223
vn -0.0000 -0.8201 0.5723
vn -0.0000 -0.9178 0.3970
vn -0.0000 -0.9791 0.2034
vn -0.0000 -0.9791 -0.2034
vn -0.0000 -0.9178 -0.3970
vn -0.0000 -0.8201 -0.5723
vn -0.0000 -0.6916 -0.7223
vn -0.0000 -0.5389 -0.8424
vn -0.0000 -0.3687 -0.9296
vn -0.0000 -0.1871 -0.9823
vn -0.0000 0.1871 -0.9823
vn -0.0000 0.3687 -0.9296
vn -0.0000 0.5389 -0.8424
vn -0.0000 0.6916 -0.7223
vn -0.0000 0.8201 -0.5723
vn -0.0000 0.9178 -0.3970
vn -0.0000 0.9791 -0.2034
vn -0.0000 0.9791 0.2034
vn -0.0000 0.9178 0.3970
vn -0.0000 0.8201 0.5723
vn -0.0000 0.6916 0.7223
vn -0.0000 0.5389 0.8424
vn -0.0000 0.3687 0.9296
vn -0.0000 0.1871 0.9823
vt 0.484375 0.750000
vt 0.484375 0.984375
vt 0.469727 0.984375
vt 0.469727 0.750000
vt 0.455078 0.984375
vt 0.455078 0.750000
vt 0.440430 0.984375
vt 0.440430 0.750000
vt 0.425781 0.984375
vt 0.425781 0.750000
vt 0.411133 0.984375
vt 0.411133 0.750000
vt 0.396484 0.984375
vt 0.396484 0.750000
vt 0.381836 0.984375
vt 0.381836 0.750000
vt 0.367188 0.984375
vt 0.367188 0.750000
vt 0.352539 0.984375
vt 0.352539 0.750000
vt 0.337891 0.984375
vt 0.337891 0.750000
vt 0.323242 0.984375
vt 0.323242 0.750000
vt 0.308594 0.984375
vt 0.308594 0.750000
vt 0.293945 0.984375
vt 0.293945 0.750000
vt 0.279297 0.984375
vt 0.279297 0.750000
vt 0.264648 0.984375
vt 0.264648 0.750000
vt 0.250000 0.984375
vt 0.250000 0.750000
vt 0.235352 0.984375
vt 0.235352 0.750000
vt 0.220703 0.984375
vt 0.220703 0.750000
vt 0.206055 0.984375
vt 0.206055 0.750000
vt 0.191406 0.984375
vt 0.191406 0.750000
vt 0.176758 0.984375
vt 0.176758 0.750000
vt 0.162109 0.984375
vt 0.162109 0.750000
vt 0.147461 0.984375
vt 0.147461 0.750000
vt 0.132812 0.984375
vt 0.132812 0.750000
vt 0.118164 0.984375
vt 0.118164 0.750000
vt 0.103516 0.984375
vt 0.103516 0.750000
vt 0.088867 0.984375
vt 0.088867 0.750000
vt 0.074219 0.984375
vt 0.074219 0.750000
vt 0.059570 0.984375
vt 0.059570 0.750000
vt 0.044922 0.984375
vt 0.044922 0.750000
vt 0.154760 0.743151
vt 0.132812 0.745313
vt 0.110865 0.743151
vt 0.089761 0.736749
vt 0.070311 0.726353
vt 0.053263 0.712362
vt 0.039272 0.695314
vt 0.028876 0.675864
vt 0.022474 0.654760
vt 0.020313 0.632812
vt 0.022474 0.610865
vt 0.028876 0.589761
vt 0.039272 0.570311
vt 0.053263 0.553263
vt 0.070311 0.539272
vt 0.089761 0.528876
vt 0.110865 0.522474
vt 0.132812 0.520312
vt 0.154760 0.522474
vt 0.175864 0.528876
vt 0.195314 0.539272
vt 0.212362 0.553263
vt 0.226353 0.570311
vt 0.236749 0.589761
vt 0.243151 0.610865
vt 0.245313 0.632812
vt 0.243151 0.654760
vt 0.236749 0.675864
vt 0.226353 0.695314
vt 0.212362 0.712362
vt 0.195314 0.726353
vt 0.175864 0.736749
vt 0.030273 0.984375
vt 0.030273 0.750000
vt 0.015625 0.984375
vt 0.015625 0.750000
vt 0.367188 0.745313
vt 0.389135 0.743151
vt 0.410239 0.736749
vt 0.429689 0.726353
vt 0.446737 0.712362
vt 0.460728 0.695314
vt 0.471124 0.675864
vt 0.477526 0.654760
vt 0.479688 0.632812
vt 0.477526 0.610865
vt 0.471124 0.589761
vt 0.460728 0.570311
vt 0.446737 0.553263
vt 0.429689 0.539272
vt 0.410239 0.528876
vt 0.389135 0.522474
vt 0.367188 0.520312
vt 0.345240 0.522474
vt 0.324136 0.528876
vt 0.304686 0.539272
vt 0.287638 0.553263
vt 0.273647 0.570311
vt 0.263251 0.589761
vt 0.256849 0.610865
vt 0.254687 0.632812
vt 0.256849 0.654760
vt 0.263251 0.675864
vt 0.273647 0.695314
vt 0.287638 0.712362
vt 0.304686 0.726353
vt 0.324136 0.736749
vt 0.345240 0.743151
vt 0.691406 0.515625
vt 0.808594 0.515625
vt 0.808594 0.632812
vt 0.691406 0.632812
vt 0.808594 0.750000
vt 0.691406 0.750000
vt 0.808594 0.867188
vt 0.691406 0.867188
vt 0.808594 0.984375
vt 0.691406 0.984375
vt 0.574219 0.750000
vt 0.574219 0.867188
vt 0.925781 0.750000
vt 0.925781 0.867188
vt 0.191406 0.015625
vt 0.308594 0.015625
vt 0.308594 0.132812
vt 0.191406 0.132812
vt 0.308594 0.250000
vt 0.191406 0.250000
vt 0.308594 0.367188
vt 0.191406 0.367188
vt 0.308594 0.484375
vt 0.191406 0.484375
vt 0.074219 0.250000
vt 0.074219 0.367188
vt 0.425781 0.250000
vt 0.425781 0.367188
vt 0.691406 0.015625
vt 0.808594 0.015625
vt 0.808594 0.132812
vt 0.691406 0.132812
vt 0.808594 0.250000
vt 0.691406 0.250000
vt 0.808594 0.367188
vt 0.691406 0.367188
vt 0.808594 0.484375
vt 0.691406 0.484375
vt 0.574219 0.250000
vt 0.574219 0.367188
vt 0.925781 0.250000
vt 0.925781 0.367188
s 1
usemtl RocketLauncherMaterial
f 1/1/1 2/2/1 4/3/2 3/4/2
f 3/4/2 4/3/2 6/5/3 5/6/3
f 5/6/3 6/5/3 8/7/4 7/8/4
f 7/8/4 8/7/4 10/9/5 9/10/5
f 9/10/5 10/9/5 12/11/6 11/12/6
f 11/12/6 12/11/6 14/13/7 13/14/7
f 13/14/7 14/13/7 16/15/8 15/16/8
f 15/16/8 16/15/8 18/17/9 17/18/9
f 17/18/9 18/17/9 20/19/10 19/20/10
f 19/20/10 20/19/10 22/21/11 21/22/11
f 21/22/11 22/21/11 24/23/12 23/24/12
f 23/24/12 24/23/12 26/25/13 25/26/13
f 25/26/13 26/25/13 28/27/14 27/28/14
f 27/28/14 28/27/14 30/29/15 29/30/15
f 29/30/15 30/29/15 32/31/16 31/32/16
f 31/32/16 32/31/16 34/33/17 33/34/17
f 33/34/17 34/33/17 36/35/18 35/36/18
f 35/36/18 36/35/18 38/37/19 37/38/19
f 37/38/19 38/37/19 40/39/20 39/40/20
f 39/40/20 40/39/20 42/41/21 41/42/21
f 41/42/21 42/41/21 44/43/22 43/44/22
f 43/44/22 44/43/22 46/45/23 45/46/23
f 45/46/23 46/45/23 48/47/24 47/48/24
f 47/48/24 48/47/24 50/49/25 49/50/25
f 49/50/25 50/49/25 52/51/26 51/52/26
f 51/52/26 52/51/26 54/53/27 53/54/27
f 53/54/27 54/53/27 56/55/28 55/56/28
f 55/56/28 56/55/28 58/57/29 57/58/29
f 57/58/29 58/57/29 60/59/30 59/60/30
f 59/60/30 60/59/30 62/61/31 61/62/31
f 4/63/32 2/64/32 64/65/32 62/66/32 60/67/32 58/68/32 56/69/32 54/70/32 52/71/32 50/72/32 48/73/32 46/74/32 44/75/32 42/76/32 40/77/32 38/78/32 36/79/32 34/80/32 32/81/32 30/82/32 28/83/32 26/84/32 24/85/32 22/86/32 20/87/32 18/88/32 16/89/32 14/90/32 12/91/32 10/92/32 8/93/32 6/94/32
f 61/62/31 62/61/31 64/95/33 63/96/33
f 63/96/33 64/95/33 2/97/1 1/98/1
f 1/99/34 3/100/34 5/101/34 7/102/34 9/103/34 11/104/34 13/105/34 15/106/34 17/107/34 19/108/34 21/109/34 23/110/34 25/111/34 27/112/34 29/113/34 31/114/34 33/115/34 35/116/34 37/117/34 39/118/34 41/119/34 43/120/34 45/121/34 47/122/34 49/123/34 51/124/34 53/125/34 55/126/34 57/127/34 59/128/34 61/129/34 63/130/34
f 65/131/34 66/132/34 68/133/34 67/134/34
f 67/134/1 68/133/1 72/135/1 71/136/1
f 71/136/32 72/135/32 70/137/32 69/138/32
f 69/138/17 70/137/17 66/139/17 65/140/17
f 67/141/9 71/136/9 69/138/9 65/142/9
f 72/135/25 68/143/25 66/144/25 70/137/25
f 73/145/34 74/146/34 76/147/34 75/148/34
f 75/148/1 76/147/1 80/149/1 79/150/1
f 79/150/32 80/149/32 78/151/32 77/152/32
f 77/152/17 78/151/17 74/153/17 73/154/17
f 75/155/9 79/150/9 77/152/9 73/156/9
f 80/149/25 76/157/25 74/158/25 78/151/25
f 81/145/35 82/146/35 84/147/35 83/148/35
f 83/148/1 84/147/1 88/149/1 87/150/1
f 87/150/36 88/149/36 86/151/36 85/152/36
f 85/152/17 86/151/17 82/153/17 81/154/17
f 83/155/37 87/150/37 85/152/37 81/156/37
f 88/149/38 84/157/38 82/158/38 86/151/38
f 89/145/39 90/146/39 92/147/39 91/148/39
f 91/148/1 92/147/1 96/149/1 95/150/1
f 95/150/40 96/149/40 94/151/40 93/152/40
f 93/152/17 94/151/17 90/153/17 89/154/17
f 91/155/41 95/150/41 93/152/41 89/156/41
f 96/149/42 92/157/42 90/158/42 94/151/42
f 97/145/43 98/146/43 100/147/43 99/148/43
f 99/148/1 100/147/1 104/149/1 103/150/1
f 103/150/44 104/149/44 102/151/44 101/152/44
f 101/152/17 102/151/17 98/153/17 97/154/17
f 99/155/45 103/150/45 101/152/45 97/156/45
f 104/149/46 100/157/46 98/158/46 102/151/46
f 105/145/47 106/146/47 108/147/47 107/148/47
f 107/148/1 108/147/1 112/149/1 111/150/1
f 111/150/32 112/149/32 110/151/32 109/152/32
f 109/152/17 110/151/17 106/153/17 105/154/17
f 107/155/9 111/150/9 109/152/9 105/156/9
f 112/149/25 108/157/25 106/158/25 110/151/25
f 113/145/48 114/146/48 116/147/48 115/148/48
f 115/148/1 116/147/1 120/149/1 119/150/1
f 119/150/49 120/149/49 118/151/49 117/152/49
f 117/152/17 118/151/17 114/153/17 113/154/17
f 115/155/9 119/150/9 117/152/9 113/156/9
f 120/149/50 116/157/50 114/158/50 118/151/50
f 121/159/51 122/160/51 124/161/51 123/162/51
f 123/162/1 124/161/1 128/163/1 127/164/1
f 127/164/32 128/163/32 126/165/32 125/166/32
f 125/166/17 126/165/17 122/167/17 121/168/17
f 123/169/9 127/164/9 125/166/9 121/170/9
f 128/163/25 124/171/25 122/172/25 126/165/25
f 129/159/52 130/160/52 132/161/52 131/162/52
f 131/162/1 132/161/1 136/163/1 135/164/1
f 135/164/32 136/163/32 134/165/32 133/166/32
f 133/166/17 134/165/17 130/167/17 129/168/17
f 131/169/9 135/164/9 133/166/9 129/170/9
f 136/163/25 132/171/25 130/172/25 134/165/25
f 137/145/53 138/146/53 140/147/53 139/148/53
f 139/148/34 140/147/34 144/149/34 143/150/34
f 143/150/54 144/149/54 142/151/54 141/152/54
f 141/152/32 142/151/32 138/153/32 137/154/32
f 139/155/55 143/150/55 141/152/55 137/156/55
f 144/149/56 140/157/56 138/158/56 142/151/56
f 145/1/1 146/2/1 148/3/57 147/4/57
f 147/4/57 148/3/57 150/5/58 149/6/58
f 149/6/58 150/5/58 152/7/59 151/8/59
f 151/8/59 152/7/59 154/9/60 153/10/60
f 153/10/60 154/9/60 156/11/61 155/12/61
f 155/12/61 156/11/61 158/13/62 157/14/62
f 157/14/62 158/13/62 160/15/63 159/16/63
f 159/16/63 160/15/63 162/17/9 161/18/9
f 161/18/9 162/17/9 164/19/64 163/20/64
f 163/20/64 164/19/64 166/21/65 165/22/65
f 165/22/65 166/21/65 168/23/66 167/24/66
f 167/24/66 168/23/66 170/25/67 169/26/67
f 169/26/67 170/25/67 172/27/68 171/28/68
f 171/28/68 172/27/68 174/29/69 173/30/69
f 173/30/69 174/29/69 176/31/70 175/32/70
f 175/32/70 176/31/70 178/33/17 177/34/17
f 177/34/17 178/33/17 180/35/71 179/36/71
f 179/36/71 180/35/71 182/37/72 181/38/72
f 181/38/72 182/37/72 184/39/73 183/40/73
f 183/40/73 184/39/73 186/41/74 185/42/74
f 185/42/74 186/41/74 188/43/75 187/44/75
f 187/44/75 188/43/75 190/45/76 189/46/76
f 189/46/76 190/45/76 192/47/77 191/48/77
f 191/48/77 192/47/77 194/49/25 193/50/25
f 193/50/25 194/49/25 196/51/78 195/52/78
f 195/52/78 196/51/78 198/53/79 197/54/79
f 197/54/79 198/53/79 200/55/80 199/56/80
f 199/56/80 200/55/80 202/57/81 201/58/81
f 201/58/81 202/57/81 204/59/82 203/60/82
f 203/60/82 204/59/82 206/61/83 205/62/83
f 148/63/32 146/64/32 208/65/32 206/66/32 204/67/32 202/68/32 200/69/32 198/70/32 196/71/32 194/72/32 192/73/32 190/74/32 188/75/32 186/76/32 184/77/32 182/78/32 180/79/32 178/80/32 176/81/32 174/82/32 172/83/32 170/84/32 168/85/32 166/86/32 164/87/32 162/88/32 160/89/32 158/90/32 156/91/32 154/92/32 152/93/32 150/94/32
f 205/62/83 206/61/83 208/95/84 207/96/84
f 207/96/84 208/95/84 146/97/1 145/98/1
f 145/99/34 147/100/34 149/101/34 151/102/34 153/103/34 155/104/34 157/105/34 159/106/34 161/107/34 163/108/34 165/109/34 167/110/34 169/111/34 171/112/34 173/113/34 175/114/34 177/115/34 179/116/34 181/117/34 183/118/34 185/119/34 187/120/34 189/121/34 191/122/34 193/123/34 195/124/34 197/125/34 199/126/34 201/127/34 203/128/34 205/129/34 207/130/34
f 209/159/51 210/160/51 212/161/51 211/162/51
f 211/162/1 212/161/1 216/163/1 215/164/1
f 215/164/32 216/163/32 214/165/32 213/166/32
f 213/166/17 214/165/17 210/167/17 209/168/17
f 211/169/9 215/164/9 213/166/9 209/170/9
f 216/163/25 212/171/25 210/172/25 214/165/25
